ply
format ascii 1.0
element vertex 104
property float x
property float y
property float z
end_header
-260.0 300.0 0
-260.0 3.749399456654644e-31 0
-254.74747474747474 0.10066617640578138 0
-249.49494949494948 0.4022593584602384 0
-244.24242424242425 0.9035651368646637 0
-238.989898989899 1.602564930182187 0
-233.73737373737373 2.496444112952735 0
-228.4848484848485 3.5816033491963615 0
-223.23232323232324 4.853673085668935 0
-217.97979797979798 6.307531146510753 0
-212.72727272727272 7.937323358440937 0
-207.47474747474746 9.736487123447072 0
-202.22222222222223 11.697777844051105 0
-196.96969696969697 13.813298094746504 0
-191.7171717171717 16.0745294221434 0
-186.46464646464648 18.472366645773874 0
-181.21212121212122 20.9971545214401 0
-175.95959595959596 23.638726619474877 0
-170.7070707070707 26.38644626136587 0
-165.45454545454544 29.22924934990569 0
-160.2020202020202 32.15568892040641 0
-154.94949494949495 35.153981233586265 0
-149.6969696969697 38.212053224528646 0
-144.44444444444446 41.31759111665348 0
-139.1919191919192 44.458090004949455 0
-133.93939393939394 47.620904208812895 0
-128.68686868686868 50.7932981917404 0
-123.43434343434342 53.96249784283943 0
-118.18181818181819 57.11574191366425 0
-112.92929292929293 60.24033340325954 0
-107.67676767676767 63.32369068450176 0
-102.42424242424244 66.35339816587108 0
-97.17171717171718 69.31725628465641 0
-91.91919191919192 72.2033306302887 0
-86.66666666666666 75.00000000000001 0
-81.4141414141414 77.69600319330551 0
-76.16161616161617 80.28048435688333 0
-70.9090909090909 82.74303669726426 0
-65.65656565656565 85.07374438531608 0
-60.404040404040416 87.26322248378773 0
-55.151515151515156 89.30265473713936 0
-49.898989898989896 91.18382907149164 0
-44.646464646464636 92.89917066174884 0
-39.39393939393938 94.44177243274619 0
-34.141414141414145 95.80542287160348 0
-28.888888888888886 96.98463103929541 0
-23.636363636363626 97.97464868072488 0
-18.383838383838395 98.77148934427035 0
-13.131313131313135 99.37194443381972 0
-7.878787878787875 99.77359612865423 0
-2.626262626262644 99.97482711915926 0
2.626262626262644 99.97482711915926 0
7.878787878787875 99.77359612865423 0
13.131313131313163 99.37194443381972 0
18.383838383838395 98.77148934427035 0
23.636363636363626 97.97464868072488 0
28.888888888888914 96.98463103929541 0
34.141414141414145 95.80542287160348 0
39.39393939393938 94.44177243274619 0
44.646464646464665 92.89917066174884 0
49.898989898989896 91.18382907149164 0
55.15151515151513 89.30265473713939 0
60.404040404040416 87.26322248378773 0
65.65656565656565 85.07374438531608 0
70.90909090909093 82.74303669726424 0
76.16161616161617 80.28048435688333 0
81.4141414141414 77.69600319330551 0
86.66666666666669 74.99999999999999 0
91.91919191919192 72.2033306302887 0
97.1717171717172 69.31725628465641 0
102.42424242424244 66.35339816587108 0
107.67676767676767 63.32369068450176 0
112.92929292929296 60.24033340325951 0
118.18181818181819 57.11574191366425 0
123.43434343434342 53.96249784283943 0
128.6868686868687 50.79329819174039 0
133.93939393939394 47.620904208812895 0
139.19191919191917 44.45809000494946 0
144.44444444444446 41.31759111665348 0
149.6969696969697 38.212053224528646 0
154.94949494949498 35.15398123358625 0
160.2020202020202 32.15568892040641 0
165.45454545454544 29.22924934990569 0
170.70707070707073 26.386446261365847 0
175.95959595959596 23.638726619474877 0
181.21212121212125 20.997154521440077 0
186.46464646464648 18.472366645773874 0
191.7171717171717 16.0745294221434 0
196.969696969697 13.813298094746493 0
202.22222222222223 11.697777844051105 0
207.47474747474746 9.736487123447072 0
212.72727272727275 7.937323358440937 0
217.97979797979798 6.307531146510753 0
223.2323232323232 4.8536730856689445 0
228.4848484848485 3.5816033491963615 0
233.73737373737373 2.496444112952735 0
238.98989898989902 1.6025649301821814 0
244.24242424242425 0.9035651368646637 0
249.49494949494948 0.4022593584602384 0
254.7474747474747 0.10066617640578138 0
260.0 3.749399456654644e-31 0
260.0 0.0 0
3000.0 0.0 0
3000.0 300.0 0
